<svg width="40" height="40" viewBox="0 0 40 40" fill="none" xmlns="http://www.w3.org/2000/svg">
<path d="M26.9995 24.4817L15.5178 12.9984C14.7478 12.2284 14.3628 11.8434 13.8878 11.7217C13.713 11.6749 13.5318 11.6569 13.3512 11.6684C12.8612 11.6951 12.4078 11.9967 11.5012 12.6017L11.2695 12.7567C9.43116 13.9817 8.51283 14.5934 8.36783 15.3201C8.28949 15.7101 8.34449 16.1151 8.52116 16.4701C8.85449 17.1334 9.90116 17.4817 11.9962 18.1817C12.6695 18.4051 13.0062 18.5184 13.2628 18.7317C13.4073 18.8495 13.53 18.9884 13.6312 19.1484C13.8112 19.4301 13.8812 19.7767 14.0195 20.4734L14.4695 22.7234C14.6962 23.8567 14.8095 24.4234 15.1928 24.8067C15.5762 25.1901 16.1428 25.3034 17.2762 25.5301L19.5262 25.9801C20.2228 26.1184 20.5695 26.1884 20.8528 26.3684C21.0106 26.4684 21.1495 26.5906 21.2695 26.7351C21.4812 26.9934 21.5945 27.3301 21.8195 28.0034C22.5162 30.0984 22.8662 31.1467 23.5278 31.4784C23.8845 31.6551 24.2895 31.7101 24.6778 31.6317C25.4045 31.4867 26.0178 30.5684 27.2445 28.7301L27.3978 28.4967C28.0028 27.5917 28.3045 27.1367 28.3312 26.6467C28.3423 26.4672 28.3243 26.2871 28.2778 26.1134C28.1562 25.6367 27.7712 25.2517 27.0012 24.4801L26.9995 24.4817Z" stroke="#FF5252" stroke-width="1.5"/>
<path d="M22.4997 30L19.543 33.0934C17.1597 35.4767 15.9663 36.6667 14.488 36.6667C13.0097 36.6667 11.8163 35.475 9.43467 33.0934L6.90634 30.565C4.52301 28.1834 3.33301 26.9917 3.33301 25.5117C3.33301 24.0317 4.52467 22.84 6.90634 20.4567L9.99967 17.5M14.9997 12.8467L21.0763 6.77004C23.3663 4.47837 24.513 3.33337 25.938 3.33337C27.3613 3.33337 28.5063 4.47837 30.798 6.77004L33.2297 9.20171C35.5213 11.4934 36.6663 12.6384 36.6663 14.0617C36.6663 15.485 35.5213 16.6317 33.2297 18.9234L27.153 25" stroke="#297D2D" stroke-width="1.5"/>
<path d="M32.6667 7.33341L20.6667 19.3334M20 6.66675L33.3333 20.0001" stroke="#297D2D" stroke-width="1.5" stroke-linejoin="round"/>
</svg>
