<svg width="40" height="40" viewBox="0 0 40 40" fill="none" xmlns="http://www.w3.org/2000/svg">
<path d="M11.6667 35H28.3333M20 35C23.9782 35 27.7936 33.4196 30.6066 30.6066C33.4196 27.7936 35 23.9782 35 20H5C5 23.9782 6.58035 27.7936 9.3934 30.6066C12.2064 33.4196 16.0218 35 20 35Z" stroke="#297D2D" stroke-width="2" stroke-linecap="round" stroke-linejoin="round"/>
<path d="M18.967 20C17.9576 20.0094 16.982 19.6368 16.2358 18.957C15.4896 18.2771 15.028 17.3403 14.9437 16.3344C14.8593 15.3285 15.1584 14.3279 15.781 13.5333C16.4035 12.7387 17.3034 12.2088 18.3003 12.05C18.1407 11.3437 18.1758 10.6073 18.4019 9.91944C18.628 9.23154 19.0365 8.61791 19.584 8.144C20.1315 7.6701 20.7973 7.35369 21.5105 7.22853C22.2237 7.10337 22.9575 7.17415 23.6336 7.43332C23.9297 6.96726 24.319 6.56754 24.7771 6.25932C25.2353 5.9511 25.7522 5.74107 26.2955 5.64243C26.8387 5.5438 27.3965 5.55871 27.9338 5.68622C28.471 5.81373 28.976 6.05108 29.417 6.38332C30.1862 5.7787 31.1505 5.477 32.1272 5.53531C33.1039 5.59363 34.0253 6.00791 34.7172 6.69977C35.4091 7.39164 35.8233 8.3131 35.8817 9.2898C35.94 10.2665 35.6383 11.2307 35.0336 12C35.41 12.4999 35.6638 13.0811 35.7747 13.6969C35.8856 14.3127 35.8505 14.9459 35.6721 15.5457C35.4938 16.1454 35.1773 16.695 34.748 17.1502C34.3187 17.6054 33.7886 17.9536 33.2003 18.1667C33.3529 18.7665 33.37 19.3927 33.2503 20M21.667 20L28.3336 13.3333" stroke="#FF5252" stroke-width="2" stroke-linecap="round" stroke-linejoin="round"/>
<path d="M18.1671 12.0833C17.2529 11.1087 16.0663 10.4322 14.762 10.1418C13.4577 9.85145 12.0962 9.96075 10.855 10.4555C9.6137 10.9502 8.55025 11.8073 7.80324 12.9152C7.05623 14.0232 6.66031 15.3304 6.66708 16.6666C6.66708 17.8833 7.00041 19.0166 7.56708 19.9999" stroke="#297D2D" stroke-width="2" stroke-linecap="round" stroke-linejoin="round"/>
</svg>
