<svg width="40" height="40" viewBox="0 0 40 40" fill="none" xmlns="http://www.w3.org/2000/svg">
<path d="M21.7583 8.92127C21.923 8.92127 22.0811 8.85582 22.1976 8.73931C22.3141 8.6228 22.3795 8.46478 22.3795 8.30002C22.3795 8.13525 22.3141 7.97724 22.1976 7.86073C22.0811 7.74422 21.923 7.67877 21.7583 7.67877C21.5935 7.67877 21.4355 7.74422 21.319 7.86073C21.2025 7.97724 21.137 8.13525 21.137 8.30002C21.137 8.46478 21.2025 8.6228 21.319 8.73931C21.4355 8.85582 21.5935 8.92127 21.7583 8.92127ZM7.57453 14.435C7.57453 14.5166 7.55846 14.5974 7.52724 14.6728C7.49602 14.7481 7.45026 14.8166 7.39257 14.8743C7.33488 14.932 7.2664 14.9778 7.19102 15.009C7.11565 15.0402 7.03487 15.0563 6.95328 15.0563C6.8717 15.0563 6.79091 15.0402 6.71554 15.009C6.64017 14.9778 6.57168 14.932 6.51399 14.8743C6.4563 14.8166 6.41054 14.7481 6.37932 14.6728C6.3481 14.5974 6.33203 14.5166 6.33203 14.435C6.33203 14.2703 6.39748 14.1122 6.51399 13.9957C6.6305 13.8792 6.78852 13.8138 6.95328 13.8138C7.11805 13.8138 7.27606 13.8792 7.39257 13.9957C7.50908 14.1122 7.57453 14.2703 7.57453 14.435ZM16.2445 23.1175C16.2445 23.2823 16.1791 23.4403 16.0626 23.5568C15.9461 23.6733 15.788 23.7388 15.6233 23.7388C15.4585 23.7388 15.3005 23.6733 15.184 23.5568C15.0675 23.4403 15.002 23.2823 15.002 23.1175C15.0092 22.9577 15.0777 22.8069 15.1933 22.6963C15.3089 22.5858 15.4627 22.5241 15.6227 22.5241C15.7826 22.5241 15.9364 22.5858 16.052 22.6963C16.1676 22.8069 16.2361 22.9577 16.2433 23.1175M14.207 9.28127C14.207 9.44604 14.1416 9.60405 14.0251 9.72056C13.9086 9.83707 13.7505 9.90252 13.5858 9.90252C13.421 9.90252 13.263 9.83707 13.1465 9.72056C13.03 9.60405 12.9645 9.44604 12.9645 9.28127C12.9645 9.1165 13.03 8.95849 13.1465 8.84198C13.263 8.72547 13.421 8.66002 13.5858 8.66002C13.7505 8.66002 13.9086 8.72547 14.0251 8.84198C14.1416 8.95849 14.207 9.1165 14.207 9.28127ZM17.672 20.2238C17.8368 20.2238 17.9948 20.1583 18.1113 20.0418C18.2278 19.9253 18.2933 19.7673 18.2933 19.6025C18.2933 19.4378 18.2278 19.2797 18.1113 19.1632C17.9948 19.0467 17.8368 18.9813 17.672 18.9813C17.5073 18.9813 17.3492 19.0467 17.2327 19.1632C17.1162 19.2797 17.0508 19.4378 17.0508 19.6025C17.0508 19.7673 17.1162 19.9253 17.2327 20.0418C17.3492 20.1583 17.5073 20.2238 17.672 20.2238ZM11.077 16.485C11.077 16.5666 11.061 16.6474 11.0297 16.7228C10.9985 16.7981 10.9528 16.8666 10.8951 16.9243C10.8374 16.982 10.7689 17.0278 10.6935 17.059C10.6182 17.0902 10.5374 17.1063 10.4558 17.1063C10.3742 17.1063 10.2934 17.0902 10.218 17.059C10.1427 17.0278 10.0742 16.982 10.0165 16.9243C9.9588 16.8666 9.91304 16.7981 9.88182 16.7228C9.8506 16.6474 9.83453 16.5666 9.83453 16.485C9.83453 16.3203 9.89998 16.1622 10.0165 16.0457C10.133 15.9292 10.291 15.8638 10.4558 15.8638C10.6205 15.8638 10.7786 15.9292 10.8951 16.0457C11.0116 16.1622 11.077 16.3203 11.077 16.485ZM20.7895 13.02C20.9543 13.02 21.1123 12.9546 21.2288 12.8381C21.3453 12.7216 21.4108 12.5635 21.4108 12.3988C21.4108 12.234 21.3453 12.076 21.2288 11.9595C21.1123 11.843 20.9543 11.7775 20.7895 11.7775C20.6297 11.7847 20.4789 11.8532 20.3684 11.9688C20.2578 12.0844 20.1961 12.2382 20.1961 12.3981C20.1961 12.5581 20.2578 12.7119 20.3684 12.8275C20.4789 12.9431 20.6297 13.0116 20.7895 13.0188M15.6233 6.38752C15.788 6.38752 15.9461 6.32207 16.0626 6.20556C16.1791 6.08905 16.2445 5.93103 16.2445 5.76627C16.2445 5.6015 16.1791 5.44349 16.0626 5.32698C15.9461 5.21047 15.788 5.14502 15.6233 5.14502C15.4585 5.14502 15.3005 5.21047 15.184 5.32698C15.0675 5.44349 15.002 5.6015 15.002 5.76627C15.002 5.93103 15.0675 6.08905 15.184 6.20556C15.3005 6.32207 15.4585 6.38752 15.6233 6.38752ZM9.48703 8.92127C9.6518 8.92127 9.80981 8.85582 9.92632 8.73931C10.0428 8.6228 10.1083 8.46478 10.1083 8.30002C10.1083 8.13525 10.0428 7.97724 9.92632 7.86073C9.80981 7.74422 9.6518 7.67877 9.48703 7.67877C9.32227 7.67877 9.16425 7.74422 9.04774 7.86073C8.93123 7.97724 8.86578 8.13525 8.86578 8.30002C8.86578 8.46478 8.93123 8.6228 9.04774 8.73931C9.16425 8.85582 9.32227 8.92127 9.48703 8.92127ZM22.3795 20.5713C22.3795 20.736 22.3141 20.8941 22.1976 21.0106C22.0811 21.1271 21.923 21.1925 21.7583 21.1925C21.5935 21.1925 21.4355 21.1271 21.319 21.0106C21.2025 20.8941 21.137 20.736 21.137 20.5713C21.137 20.4065 21.2025 20.2485 21.319 20.132C21.4355 20.0155 21.5935 19.95 21.7583 19.95C21.923 19.95 22.0811 20.0155 22.1976 20.132C22.3141 20.2485 22.3795 20.4065 22.3795 20.5713ZM24.3045 15.0563C24.4693 15.0563 24.6273 14.9908 24.7438 14.8743C24.8603 14.7578 24.9258 14.5998 24.9258 14.435C24.9258 14.2703 24.8603 14.1122 24.7438 13.9957C24.6273 13.8792 24.4693 13.8138 24.3045 13.8138C24.1398 13.8138 23.9817 13.8792 23.8652 13.9957C23.7487 14.1122 23.6833 14.2703 23.6833 14.435C23.6833 14.5998 23.7487 14.7578 23.8652 14.8743C23.9817 14.9908 24.1398 15.0563 24.3045 15.0563ZM10.1083 20.5713C10.1083 20.6529 10.0922 20.7336 10.061 20.809C10.0298 20.8844 9.98401 20.9529 9.92632 21.0106C9.86863 21.0682 9.80015 21.114 9.72477 21.1452C9.6494 21.1765 9.56862 21.1925 9.48703 21.1925C9.40545 21.1925 9.32466 21.1765 9.24929 21.1452C9.17392 21.114 9.10543 21.0682 9.04774 21.0106C8.99005 20.9529 8.94429 20.8844 8.91307 20.809C8.88185 20.7336 8.86578 20.6529 8.86578 20.5713C8.86578 20.4065 8.93123 20.2485 9.04774 20.132C9.16425 20.0155 9.32227 19.95 9.48703 19.95C9.6518 19.95 9.80981 20.0155 9.92632 20.132C10.0428 20.2485 10.1083 20.4065 10.1083 20.5713ZM10.5308 12.8575C10.6146 12.8613 10.6984 12.848 10.7769 12.8185C10.8555 12.789 10.9273 12.7439 10.988 12.6859C11.0486 12.6279 11.0969 12.5582 11.1299 12.4811C11.1629 12.4039 11.1799 12.3208 11.1799 12.2369C11.1799 12.153 11.1629 12.0699 11.1299 11.9927C11.0969 11.9156 11.0486 11.8459 10.988 11.7879C10.9273 11.7299 10.8555 11.6848 10.7769 11.6553C10.6984 11.6258 10.6146 11.6125 10.5308 11.6163C10.371 11.6234 10.2201 11.692 10.1096 11.8076C9.99908 11.9232 9.93739 12.077 9.93739 12.2369C9.93739 12.3968 9.99908 12.5506 10.1096 12.6662C10.2201 12.7818 10.371 12.8503 10.5308 12.8575ZM21.3495 16.6463C21.3495 16.811 21.2841 16.9691 21.1676 17.0856C21.0511 17.2021 20.893 17.2675 20.7283 17.2675C20.5635 17.2675 20.4055 17.2021 20.289 17.0856C20.1725 16.9691 20.107 16.811 20.107 16.6463C20.1142 16.4865 20.1827 16.3356 20.2983 16.2251C20.4139 16.1146 20.5677 16.0529 20.7277 16.0529C20.8876 16.0529 21.0414 16.1146 21.157 16.2251C21.2726 16.3356 21.3424 16.4865 21.3495 16.6463ZM13.412 20.1613C13.5768 20.1613 13.7348 20.0958 13.8513 19.9793C13.9678 19.8628 14.0333 19.7048 14.0333 19.54C14.0333 19.3753 13.9678 19.2172 13.8513 19.1007C13.7348 18.9842 13.5768 18.9188 13.412 18.9188C13.2473 18.9188 13.0892 18.9842 12.9727 19.1007C12.8562 19.2172 12.7908 19.3753 12.7908 19.54C12.7908 19.7048 12.8562 19.8628 12.9727 19.9793C13.0892 20.0958 13.2473 20.1613 13.412 20.1613ZM18.4545 9.34252C18.4583 9.42636 18.445 9.5101 18.4155 9.58868C18.386 9.66726 18.3409 9.73904 18.2829 9.79971C18.2249 9.86037 18.1552 9.90865 18.0781 9.94164C18.0009 9.97462 17.9178 9.99163 17.8339 9.99163C17.75 9.99163 17.6669 9.97462 17.5897 9.94164C17.5126 9.90865 17.4429 9.86037 17.3849 9.79971C17.3269 9.73904 17.2818 9.66726 17.2523 9.58868C17.2228 9.5101 17.2095 9.42636 17.2133 9.34252C17.2205 9.18274 17.289 9.03188 17.4046 8.92135C17.5202 8.81082 17.674 8.74913 17.8339 8.74913C17.9938 8.74913 18.1476 8.81082 18.2632 8.92135C18.3788 9.03188 18.4474 9.18274 18.4545 9.34252ZM15.1133 17.4538H16.3683C16.7632 17.4544 17.1544 17.3771 17.5193 17.2263C17.8843 17.0754 18.2159 16.854 18.495 16.5747C18.7742 16.2953 18.9955 15.9637 19.1462 15.5986C19.2969 15.2336 19.3741 14.8424 19.3733 14.4475C19.3726 13.6507 19.0558 12.8868 18.4924 12.3234C17.929 11.76 17.1651 11.4432 16.3683 11.4425H15.112C14.3154 11.4435 13.5516 11.7604 12.9883 12.3238C12.4249 12.8871 12.108 13.6508 12.107 14.4475C12.1077 15.2444 12.4245 16.0085 12.9878 16.5721C13.5512 17.1357 14.3164 17.4528 15.1133 17.4538Z" fill="#FF5252"/>
<path d="M10.0121 2.54755C16.4884 -0.579945 24.3021 2.1413 27.4409 8.59755L27.5071 8.73755C28.4446 8.87505 29.3346 9.2663 30.0771 9.8788L30.0809 9.8813L31.7334 11.2263C31.8159 11.2926 31.9021 11.3526 32.0184 11.4351L33.8021 12.5788C34.9112 13.2934 35.7122 14.3977 36.0471 15.6738V15.6776L36.5971 17.7588C36.6188 17.8463 36.6496 17.9455 36.6896 18.0563L37.4271 19.9426H37.4896V20.1051C37.937 21.3106 37.933 22.6372 37.4784 23.8401V26.5401H37.4509C37.0109 33.3451 31.3421 38.7501 24.4171 38.7501H24.2796C17.4221 38.7501 11.7746 33.4388 11.2571 26.7001C8.1445 25.6176 5.55725 23.3966 4.01589 20.4838L4.01464 20.4801C3.93615 20.3407 3.8644 20.1976 3.79964 20.0513C0.667136 13.5726 3.39089 5.77005 9.84589 2.6188L9.88714 2.59755L10.0121 2.54755ZM26.9571 20.9226C27.3043 21.2039 27.5842 21.5592 27.7765 21.9625C27.9687 22.3658 28.0685 22.807 28.0684 23.2538C28.0692 23.6488 27.992 24.0401 27.8412 24.4052C27.6904 24.7703 27.469 25.1021 27.1897 25.3814C26.9104 25.6607 26.5787 25.8821 26.2136 26.0329C25.8484 26.1837 25.4572 26.2609 25.0621 26.2601H23.8084C23.1895 26.2603 22.5856 26.069 22.0796 25.7126C21.8579 25.8358 21.6328 25.953 21.4046 26.0638L21.2734 26.1301C19.1904 27.1425 16.8747 27.5801 14.5659 27.3976L14.6234 27.6138C14.7909 28.2663 15.2146 28.8513 15.8034 29.2326L15.8046 29.2338L17.6234 30.4001L17.6534 30.4213C17.7721 30.5051 17.9246 30.6113 18.0809 30.7363L18.0884 30.7426L19.7596 32.1013C20.2984 32.5463 20.9809 32.7676 21.6696 32.7251H21.6746L23.8084 32.6001C24.019 32.5867 24.2303 32.5867 24.4409 32.6001L26.5696 32.7251C27.2678 32.7564 27.9534 32.5325 28.4984 32.0951L30.1684 30.7363C30.3234 30.6113 30.4759 30.5051 30.5934 30.4238L30.6259 30.4001L32.4446 29.2338H32.4459C33.0259 28.8576 33.4471 28.2751 33.6296 27.6013V27.5988L34.1734 25.5376C34.2171 25.3663 34.2734 25.1963 34.3134 25.0826L34.3346 25.0201L34.3446 24.9888L35.1371 22.9651C35.3858 22.3151 35.3858 21.5963 35.1371 20.9463L34.3496 18.9376L34.3459 18.9251C34.2799 18.7441 34.2224 18.5601 34.1734 18.3738L33.6259 16.2988C33.4481 15.6307 33.0273 15.053 32.4459 14.6788L32.4446 14.6776L30.6259 13.5113L30.5946 13.4901C30.4771 13.4063 30.3246 13.3001 30.1696 13.1763L30.1609 13.1701L28.5184 11.8326C29.1141 14.9514 28.559 18.1805 26.9559 20.9213M25.1909 9.6888C22.6496 4.46255 16.3059 2.26255 11.0659 4.81505L11.0246 4.83505L10.9021 4.88505C5.69839 7.45255 3.51839 13.7663 6.06464 18.9926L6.08464 19.0338L6.10214 19.0763C6.11714 19.1151 6.13964 19.1601 6.20839 19.2813L6.21464 19.2938L6.22089 19.3051C8.86214 24.3101 15.0471 26.3663 20.1759 23.8838L20.3059 23.8188C25.5459 21.2763 27.7359 14.9338 25.1934 9.69005" fill="#297D2D"/>
</svg>
