<svg width="42" height="42" viewBox="0 0 42 42" fill="none" xmlns="http://www.w3.org/2000/svg">
<path d="M1 26.2874C2.84468 27.7632 5.61615 28.6253 8.77878 28.5862C11.9414 28.6253 14.7129 27.7632 16.5576 26.2874C18.4022 24.8115 21.1737 23.9494 24.3363 23.9885C27.499 23.9494 30.2704 24.8115 32.1151 26.2874M12.1125 1C11.4091 1.52223 10.8392 2.21373 10.452 3.01477C10.0648 3.81581 9.8719 4.70231 9.89004 5.59771C9.8719 6.4931 10.0648 7.3796 10.452 8.18064C10.8392 8.98168 11.4091 9.67318 12.1125 10.1954M21.0026 1C20.2992 1.52223 19.7293 2.21373 19.342 3.01477C18.9548 3.81581 18.7619 4.70231 18.7801 5.59771C18.7619 6.4931 18.9548 7.3796 19.342 8.18064C19.7293 8.98168 20.2992 9.67318 21.0026 10.1954" stroke="#FF5252" stroke-width="2" stroke-linecap="round" stroke-linejoin="round"/>
<path d="M1 15.7126H32.1151V27.2069C32.1151 30.8651 30.7102 34.3734 28.2094 36.9601C25.7086 39.5468 22.3167 41 18.7801 41H14.3351C10.7984 41 7.40656 39.5468 4.90575 36.9601C2.40494 34.3734 1 30.8651 1 27.2069V15.7126Z" stroke="#297D2D" stroke-width="2" stroke-linecap="round" stroke-linejoin="round"/>
<path d="M31.5508 31.1749C32.5433 31.6462 33.6326 31.8581 34.7229 31.7919C35.8132 31.7258 36.8711 31.3836 37.8036 30.7955C38.7361 30.2074 39.5146 29.3914 40.0708 28.4191C40.6269 27.4469 40.9437 26.3482 40.9932 25.2197C41.0427 24.0912 40.8234 22.9674 40.3546 21.9471C39.8859 20.9267 39.1819 20.0412 38.3048 19.3681C37.4276 18.6951 36.404 18.2553 35.324 18.0873C34.244 17.9193 33.1406 18.0283 32.1109 18.4047" stroke="#297D2D" stroke-width="2" stroke-linecap="round" stroke-linejoin="round"/>
</svg>
