<svg width="40" height="40" viewBox="0 0 40 40" fill="none" xmlns="http://www.w3.org/2000/svg">
<path d="M5.89941 21.2583L8.33275 36.6666H31.6661L34.0961 21.2716M15.8327 36.6666L14.4194 23.2366M24.1661 36.6666L25.5694 23.3333" stroke="#297D2D" stroke-width="1.5"/>
<path d="M11.5864 20.6917C10.9677 21.2216 10.2289 21.5923 9.43419 21.7716C8.63951 21.9508 7.81308 21.9332 7.02677 21.7202C6.24046 21.5072 5.5181 21.1053 4.92253 20.5495C4.32696 19.9937 3.87622 19.3008 3.60952 18.531C3.34283 17.7613 3.26825 16.938 3.39227 16.1329C3.5163 15.3277 3.83518 14.5651 4.32117 13.9113C4.80716 13.2575 5.44554 12.7323 6.18077 12.3815C6.916 12.0307 7.72582 11.8648 8.53977 11.8983C9.10693 9.28022 10.5534 6.93521 12.6385 5.25341C14.7237 3.57161 17.3218 2.65442 20.0006 2.65442C22.6795 2.65442 25.2776 3.57161 27.3627 5.25341C29.4478 6.93521 30.8943 9.28022 31.4614 11.8983C31.5281 11.895 31.5964 11.8933 31.6664 11.8933C32.4724 11.8933 33.2665 12.0881 33.981 12.4612C34.6954 12.8343 35.3091 13.3746 35.7697 14.036C36.2303 14.6974 36.5242 15.4604 36.6263 16.2599C36.7284 17.0594 36.6358 17.8718 36.3562 18.6277C36.0766 19.3837 35.6184 20.0608 35.0206 20.6015C34.4229 21.1422 33.7033 21.5303 32.9231 21.7329C32.143 21.9354 31.3254 21.9464 30.5402 21.7648C29.7549 21.5832 29.0251 21.2145 28.4131 20.69C28.0524 21.4565 27.5029 22.1187 26.8162 22.6147C26.1294 23.1106 25.3279 23.4239 24.4869 23.5252C23.6459 23.6265 22.7929 23.5124 22.008 23.1938C21.2232 22.8751 20.5321 22.3623 19.9998 21.7033C19.4675 22.3623 18.7766 22.8753 17.9918 23.1941C17.207 23.5128 16.3541 23.627 15.5131 23.5259C14.6721 23.4248 13.8706 23.1117 13.1838 22.6159C12.4969 22.1202 11.9473 21.458 11.5864 20.6917Z" stroke="#FF5252" stroke-width="1.5"/>
</svg>
