<svg width="40" height="40" viewBox="0 0 40 40" fill="none" xmlns="http://www.w3.org/2000/svg">
<path d="M28.1309 10.4225C28.9023 10.2214 29.6819 10.0529 30.4675 9.91751C30.9546 9.83458 31.4545 9.86929 31.9255 10.0187C32.3965 10.1682 32.8249 10.4281 33.175 10.7767C34.92 12.5008 37.9975 16.4667 37.9975 23C37.9975 29.1858 37.7259 32.9267 37.4925 34.9975C37.3434 36.3225 36.3117 37.295 34.9842 37.4242C32.4759 37.6692 27.7425 37.9992 20.4875 37.9992C13.2375 37.9992 8.51421 37.6692 6.00921 37.4242C4.68337 37.295 3.65171 36.3233 3.50254 34.9992C3.28337 33.0508 3.02921 29.6233 3.00004 24.0692C2.99671 23.375 3.19921 22.6908 3.67254 22.1825C6.44171 19.2167 12.7784 15.9642 18.8617 13.5325" stroke="#297D2D" stroke-width="2" stroke-linecap="round" stroke-linejoin="round"/>
<path d="M28.8311 13C28.8311 13.6566 28.7017 14.3068 28.4505 14.9134C28.1992 15.52 27.8309 16.0712 27.3666 16.5355C26.9023 16.9998 26.3511 17.3681 25.7445 17.6194C25.1378 17.8707 24.4877 18 23.8311 18C23.1744 18 22.5243 17.8707 21.9176 17.6194C21.311 17.3681 20.7598 16.9998 20.2955 16.5355C19.8312 16.0712 19.4629 15.52 19.2117 14.9134C18.9604 14.3068 18.8311 13.6566 18.8311 13C18.8311 11.6739 19.3578 10.4021 20.2955 9.46447C21.2332 8.52678 22.505 8 23.8311 8C25.1571 8 26.4289 8.52678 27.3666 9.46447C28.3043 10.4021 28.8311 11.6739 28.8311 13Z" stroke="#FF5252" stroke-width="2" stroke-linecap="round" stroke-linejoin="round"/>
<path d="M23.8311 8C23.8311 5.23833 21.7894 3 18.8311 3M37.1644 30.5H3.83105M37.9977 23H3.83105" stroke="#297D2D" stroke-width="2" stroke-linecap="round" stroke-linejoin="round"/>
</svg>
