<svg width="40" height="40" viewBox="0 0 40 40" fill="none" xmlns="http://www.w3.org/2000/svg">
<g clip-path="url(#clip0_1139_8164)">
<path d="M14.999 18.75C14.999 19.7446 14.6039 20.6984 13.9007 21.4017C13.1974 22.1049 12.2436 22.5 11.249 22.5C10.2545 22.5 9.30063 22.1049 8.59737 21.4017C7.89411 20.6984 7.49902 19.7446 7.49902 18.75C7.49902 17.7554 7.89411 16.8016 8.59737 16.0983C9.30063 15.3951 10.2545 15 11.249 15C12.2436 15 13.1974 15.3951 13.9007 16.0983C14.6039 16.8016 14.999 17.7554 14.999 18.75ZM26.249 20C27.2436 20 28.1974 19.6049 28.9007 18.9017C29.6039 18.1984 29.999 17.2446 29.999 16.25C29.999 15.2554 29.6039 14.3016 28.9007 13.5983C28.1974 12.8951 27.2436 12.5 26.249 12.5C25.2545 12.5 24.3006 12.8951 23.5974 13.5983C22.8941 14.3016 22.499 15.2554 22.499 16.25C22.499 17.2446 22.8941 18.1984 23.5974 18.9017C24.3006 19.6049 25.2545 20 26.249 20ZM24.999 28.75C24.999 29.7446 24.6039 30.6984 23.9007 31.4017C23.1974 32.1049 22.2436 32.5 21.249 32.5C20.2545 32.5 19.3006 32.1049 18.5974 31.4017C17.8941 30.6984 17.499 29.7446 17.499 28.75C17.499 27.7554 17.8941 26.8016 18.5974 26.0983C19.3006 25.3951 20.2545 25 21.249 25C22.2436 25 23.1974 25.3951 23.9007 26.0983C24.6039 26.8016 24.999 27.7554 24.999 28.75Z" fill="#FF5252"/>
<path d="M19.9993 2.95426e-05C16.4146 -0.0061463 12.8948 0.956076 9.81179 2.78503C9.40346 2.95503 9.03929 3.18836 8.71929 3.48503C4.76636 6.18512 1.91302 10.2135 0.677557 14.8384C-0.557901 19.4633 -0.0935119 24.3779 1.98637 28.6896C4.06625 33.0012 7.62364 36.4238 12.0124 38.3357C16.4011 40.2476 21.33 40.5219 25.9038 39.1088C30.4775 37.6957 34.3927 34.689 36.9382 30.6348C39.4837 26.5806 40.4905 21.7478 39.7759 17.0144C39.0613 12.2809 36.6726 7.96081 33.0436 4.83877C29.4147 1.71672 24.7864 -0.00014419 19.9993 2.95426e-05ZM28.1243 35.5025C27.6649 35.2371 27.1545 35.0722 26.6267 35.0187C26.0989 34.9652 25.5657 35.0242 25.0624 35.192C24.5592 35.3598 24.0972 35.6324 23.7071 35.9919C23.3169 36.3514 23.0075 36.7896 22.7993 37.2775C21.8734 37.4266 20.9371 37.501 19.9993 37.5C16.5826 37.5048 13.2398 36.5051 10.3868 34.625C10.9243 34.3636 11.3914 33.9775 11.7494 33.4989C12.1074 33.0203 12.3458 32.4631 12.4448 31.8737C12.5437 31.2843 12.5004 30.6798 12.3183 30.1105C12.1363 29.5412 11.8208 29.0237 11.3982 28.6011C10.9756 28.1785 10.4581 27.863 9.88882 27.681C9.31956 27.4989 8.71503 27.4556 8.12562 27.5545C7.53621 27.6535 6.97898 27.8919 6.50039 28.2499C6.0218 28.6079 5.63571 29.0751 5.37429 29.6125C3.49426 26.7595 2.49448 23.4168 2.49929 20C2.49929 15.1175 4.49929 10.7025 7.72429 7.52753C7.91592 8.05564 8.22376 8.53395 8.62506 8.92711C9.02636 9.32028 9.51088 9.61825 10.0428 9.79902C10.5747 9.97978 11.1405 10.0387 11.6982 9.97148C12.256 9.90424 12.7915 9.71253 13.2653 9.41053C13.739 9.10853 14.1388 8.70394 14.4352 8.22667C14.7315 7.7494 14.9169 7.21164 14.9775 6.65312C15.0381 6.0946 14.9725 5.52959 14.7854 4.99984C14.5984 4.47009 14.2947 3.98915 13.8968 3.59253C15.8497 2.86808 17.9163 2.49811 19.9993 2.50003C23.5493 2.50003 26.8543 3.55753 29.6118 5.37503C29.0743 5.63645 28.6071 6.02254 28.2492 6.50113C27.8912 6.97972 27.6528 7.53694 27.5538 8.12635C27.4548 8.71577 27.4982 9.3203 27.6802 9.88956C27.8623 10.4588 28.1778 10.9763 28.6004 11.3989C29.023 11.8215 29.5405 12.137 30.1098 12.3191C30.679 12.5011 31.2836 12.5445 31.873 12.4455C32.4624 12.3466 33.0196 12.1081 33.4982 11.7502C33.9768 11.3922 34.3629 10.925 34.6243 10.3875C36.5043 13.2405 37.5041 16.5833 37.4993 20C37.4993 21.49 37.3143 22.935 36.9643 24.3175C36.6123 23.732 36.107 23.2537 35.503 22.9343C34.899 22.615 34.2192 22.4668 33.5371 22.5056C32.8549 22.5445 32.1964 22.7689 31.6325 23.1548C31.0687 23.5406 30.621 24.0732 30.3377 24.6949C30.0545 25.3167 29.9465 26.004 30.0254 26.6827C30.1043 27.3613 30.3671 28.0055 30.7855 28.5457C31.2038 29.0859 31.7618 29.5015 32.3991 29.7477C33.0365 29.9939 33.729 30.0612 34.4018 29.9425C32.7915 32.2769 30.6381 34.185 28.1268 35.5025H28.1243Z" fill="#297D2D"/>
</g>
<defs>
<clipPath id="clip0_1139_8164">
<rect width="40" height="40" fill="white"/>
</clipPath>
</defs>
</svg>
