<svg width="40" height="40" viewBox="0 0 40 40" fill="none" xmlns="http://www.w3.org/2000/svg">
<path d="M20.01 3.75C20.01 3.75 19.25 4.8175 19.25 5.625C19.25 6.4325 20.01 7.5 20.01 7.5C20.01 7.5 20.7425 8.555 20.75 9.35C20.7575 10.1625 20.01 11.25 20.01 11.25" stroke="#FF5252" stroke-width="2" stroke-linecap="round" stroke-linejoin="round"/>
<path d="M26.4748 6.25C26.4748 6.25 25.7148 7.3175 25.7148 8.125C25.7148 8.9325 26.4748 10 26.4748 10C26.4748 10 27.2073 11.055 27.2148 11.85C27.2223 12.6625 26.4748 13.75 26.4748 13.75" stroke="#FF5252" stroke-width="2" stroke-linecap="round" stroke-linejoin="round"/>
<path d="M13.5252 6.25C13.5252 6.25 14.2852 7.3175 14.2852 8.125C14.2852 8.9325 13.5252 10 13.5252 10C13.5252 10 12.7927 11.055 12.7852 11.85C12.7777 12.6625 13.5252 13.75 13.5252 13.75" stroke="#FF5252" stroke-width="2" stroke-linecap="round" stroke-linejoin="round"/>
<path d="M3.75 16.25C3.75 22.25 8.5125 28.665 13.595 31.0775V33.75H26.4875V31.0775C31.5675 28.665 36.25 22.25 36.25 16.25H3.75Z" stroke="#297D2D" stroke-width="2" stroke-linecap="round" stroke-linejoin="round"/>
</svg>
