<svg width="40" height="40" viewBox="0 0 40 40" fill="none" xmlns="http://www.w3.org/2000/svg">
<path d="M30.3042 6.81003C30.5942 6.51003 31.0292 6.61128 31.4017 6.91003C32.02 7.51977 32.628 8.13986 33.2255 8.77003C33.6167 9.20503 33.3555 9.51753 33.1392 9.77503L33.1142 9.80503C32.8955 10.0688 31.8417 11.105 31.6005 11.335C31.358 11.5663 30.9305 11.6225 30.6005 11.28C29.9553 10.6239 29.3074 9.97061 28.6567 9.32003C28.328 8.99003 28.5805 8.59378 28.7992 8.31878C28.9742 8.09753 29.8755 7.22128 30.3042 6.81003ZM28.913 15.2888C29.3542 14.9513 29.723 15.1275 30.068 15.4338C30.4367 15.7963 31.263 16.6 31.6005 16.905C31.938 17.2113 31.7517 17.5163 31.5117 17.7813C31.3117 18.0038 30.6105 18.5013 30.0242 18.9163L29.6992 19.1488C29.0817 19.5913 28.6005 19.2613 28.368 19.1C28.1355 18.94 26.9642 17.7813 26.7392 17.5163C26.5142 17.2513 26.748 16.8975 26.9642 16.7288C27.0717 16.645 27.2442 16.5313 27.4267 16.4113C27.6117 16.29 27.8055 16.1613 27.9517 16.0525C28.0892 15.9488 28.2142 15.8475 28.3555 15.7313C28.5092 15.6063 28.683 15.465 28.913 15.2888ZM23.1005 8.77003C22.7592 8.39503 22.4505 8.14253 22.0567 8.56003C21.6605 8.97878 20.8267 10.0913 20.6292 10.4325C20.4305 10.7738 20.2542 11.3575 20.6292 11.71C20.8042 11.8763 21.073 12.1663 21.3367 12.4513C21.6305 12.77 21.9167 13.08 22.0567 13.1963L22.128 13.2575C22.3792 13.475 22.6905 13.7438 23.0005 13.2625C23.3405 12.7338 23.9667 11.775 24.2417 11.4888C24.5167 11.2025 24.9217 10.62 24.5267 10.2238L24.2142 9.91128C23.833 9.53503 23.3705 9.07378 23.1005 8.77003ZM12.1967 23.8875C11.7555 24.225 11.3855 24.0475 11.0417 23.7425C10.6717 23.38 9.84673 22.5763 9.50923 22.2713C9.17173 21.965 9.35673 21.6588 9.59673 21.395C9.79923 21.1725 10.4992 20.675 11.0842 20.26L11.4092 20.0275C12.028 19.585 12.5092 19.915 12.7417 20.0763C12.9742 20.2363 14.1455 21.395 14.3692 21.66C14.593 21.925 14.3617 22.2788 14.1442 22.4475C13.9935 22.5583 13.8393 22.6642 13.6817 22.765C13.5038 22.8797 13.3292 22.9993 13.158 23.1238C13.0205 23.2275 12.8955 23.3288 12.7542 23.4438C12.6005 23.5688 12.4267 23.7113 12.1967 23.8875ZM10.2167 32.7763C9.92673 33.0763 9.49173 32.975 9.11798 32.6763C8.50011 32.0665 7.89252 31.4464 7.29548 30.8163C6.90423 30.3813 7.16548 30.0688 7.38048 29.8113L7.40548 29.7813C7.62548 29.5175 8.67923 28.4813 8.92048 28.2513C9.16298 28.02 9.59048 27.9638 9.92048 28.3063C10.2492 28.6463 11.5267 29.9288 11.8617 30.2638L11.863 30.265C12.193 30.5963 11.9405 30.9925 11.7217 31.2675C11.5455 31.4888 10.6455 32.365 10.2167 32.7763ZM17.553 30.3325C17.893 30.7075 18.2005 30.96 18.5955 30.5413C18.9905 30.1225 19.8255 29.0113 20.023 28.67C20.2205 28.3288 20.3967 27.745 20.023 27.3925C19.848 27.2263 19.578 26.935 19.3155 26.6513C19.0217 26.3325 18.7355 26.0225 18.5955 25.9063L18.5242 25.8438C18.2717 25.6263 17.9617 25.3575 17.6505 25.84C17.3105 26.3675 16.6855 27.3263 16.4105 27.6125C16.1355 27.8988 15.7292 28.4825 16.1242 28.8788L16.4367 29.1888L16.438 29.19C16.818 29.5675 17.2842 30.0275 17.553 30.3325ZM20.813 22.14C20.518 22.4375 20.0005 22.36 19.6167 21.9975L19.2917 21.6725C18.8274 21.2135 18.3682 20.7493 17.9142 20.28C17.4755 19.8175 17.8155 19.3875 18.0792 19.09C18.6318 18.5103 19.1956 17.9414 19.7705 17.3838C20.0892 17.075 20.5505 17.1963 20.923 17.505C21.2155 17.745 21.8742 18.455 22.338 18.955L22.6692 19.31C23.0655 19.7288 22.7355 20.235 22.5055 20.455C22.2742 20.6763 21.1092 21.8425 20.813 22.14Z" fill="#FF5252"/>
<path d="M30.5117 1.69128C25.7492 0.472535 22.4779 1.97628 20.2617 3.75378C17.7454 5.77253 16.4679 8.58254 16.2642 10.9388C16.0942 12.8988 15.8054 13.8838 15.0054 14.7513C14.5492 15.245 14.1979 15.5338 13.7117 15.7425C13.1967 15.9638 12.4354 16.135 11.1104 16.2063C9.44166 16.2963 7.77166 16.9563 6.38791 17.8525C5.01041 18.7438 3.79666 19.945 3.12291 21.245L2.90666 21.6575C2.45166 22.5238 1.99041 23.4025 1.68041 24.3675C1.30416 25.5363 1.14916 26.8125 1.31791 28.4675C1.65791 31.7675 3.15666 34.26 4.45666 35.6625L4.48916 35.6975L4.52416 35.73C4.99416 36.165 5.74791 36.705 6.59416 37.1888C7.44041 37.6725 8.46291 38.145 9.47666 38.385C11.7917 38.9363 16.0042 39.2 19.3392 36.6163C22.5179 34.1538 23.6767 31.2988 23.8817 28.9313C23.9704 27.9125 24.0517 27.2938 24.1967 26.8013C24.3292 26.3575 24.5242 25.99 24.9092 25.5338C25.6542 24.6513 26.8904 23.91 28.6004 23.8375C30.9854 23.735 34.7629 22.47 37.0454 18.6375C39.2929 14.8663 38.9404 10.925 38.1254 8.78128C37.3679 6.78878 35.4042 2.94378 30.5117 1.69128ZM21.8267 5.70378C23.5642 4.31003 26.0442 3.12878 29.8917 4.11378C33.6079 5.06378 35.1392 7.96128 35.7879 9.66878C36.3792 11.2225 36.6917 14.3463 34.8979 17.3575C33.1404 20.3075 30.2379 21.265 28.4942 21.34C26.0742 21.4425 24.1867 22.5138 22.9992 23.9213C22.4179 24.6088 22.0429 25.2775 21.8004 26.0888C21.5742 26.8538 21.4792 27.7088 21.3917 28.715C21.2454 30.4 20.4267 32.6113 17.8079 34.64C15.3454 36.5488 12.0567 36.4288 10.0554 35.9525C9.35541 35.7875 8.56291 35.4338 7.83291 35.0175C7.12791 34.615 6.55791 34.1988 6.25791 33.9275C5.27791 32.855 4.07916 30.8688 3.80541 28.2113C3.66791 26.8713 3.79916 25.945 4.06041 25.1325C4.29791 24.3888 4.64791 23.7213 5.11041 22.84L5.34041 22.3975C5.76541 21.5825 6.62541 20.6763 7.74666 19.9513C8.86166 19.2288 10.1154 18.7638 11.2454 18.7025C12.7004 18.6238 13.7954 18.4275 14.6992 18.0388C15.6342 17.6375 16.2642 17.0725 16.8429 16.4463C18.2279 14.945 18.5729 13.2475 18.7554 11.155C18.9017 9.46003 19.8554 7.28378 21.8267 5.70378Z" fill="#297D2D"/>
</svg>
