<svg width="40" height="40" viewBox="0 0 40 40" fill="none" xmlns="http://www.w3.org/2000/svg">
<path d="M3.94967 18.705L17.903 7.40995C18.4963 6.92988 19.2365 6.66797 19.9997 6.66797C20.7629 6.66797 21.503 6.92988 22.0963 7.40995L36.048 18.705M34.9997 25C35.4417 25 35.8656 25.1755 36.1782 25.4881C36.4907 25.8007 36.6663 26.2246 36.6663 26.6666V30C36.6663 30.442 36.4907 30.8659 36.1782 31.1785C35.8656 31.491 35.4417 31.6666 34.9997 31.6666H26.2497M4.99967 25C4.55765 25 4.13372 25.1755 3.82116 25.4881C3.5086 25.8007 3.33301 26.2246 3.33301 26.6666V30C3.33301 30.442 3.5086 30.8659 3.82116 31.1785C4.13372 31.491 4.55765 31.6666 4.99967 31.6666H19.9997" stroke="#297D2D" stroke-width="2" stroke-linecap="round" stroke-linejoin="round"/>
<path d="M11.1162 25L21.3329 32.6667C21.6831 32.9293 22.0816 33.1204 22.5056 33.229C22.9297 33.3377 23.3709 33.3617 23.8043 33.2998C24.2376 33.2379 24.6545 33.0913 25.0312 32.8682C25.4079 32.6452 25.7369 32.3502 25.9995 32L31.2495 25" stroke="#FF5252" stroke-width="2" stroke-linecap="round" stroke-linejoin="round"/>
<path d="M34.9997 18.3333H4.99967C4.0792 18.3333 3.33301 19.0794 3.33301 19.9999V23.3333C3.33301 24.2537 4.0792 24.9999 4.99967 24.9999H34.9997C35.9201 24.9999 36.6663 24.2537 36.6663 23.3333V19.9999C36.6663 19.0794 35.9201 18.3333 34.9997 18.3333Z" stroke="#297D2D" stroke-width="2" stroke-linecap="round" stroke-linejoin="round"/>
</svg>
