<svg width="40" height="40" viewBox="0 0 40 40" fill="none" xmlns="http://www.w3.org/2000/svg">
<path d="M11.0531 30.4384L8.38475 10.1667C8.18308 8.64671 8.52642 8.33337 10.2097 8.33337H28.1247C29.8081 8.33337 30.1481 8.64671 29.9481 10.1667L27.2797 30.4384C26.9164 33.1967 26.7347 34.5767 25.6897 35.405C23.5281 37.1234 14.7114 37.05 12.6431 35.405C11.5981 34.5767 11.4164 33.1967 11.0531 30.4384Z" stroke="#297D2D" stroke-width="2" stroke-linecap="round" stroke-linejoin="round"/>
<path d="M22.5 31.6667L23.2433 4.90171C23.2684 4.47752 23.4546 4.07892 23.7637 3.78741C24.0729 3.4959 24.4817 3.33348 24.9067 3.33337H31.6683" stroke="#FF5252" stroke-width="2" stroke-linecap="round"/>
<path d="M10 16.6667C10.3033 16.1117 11.3033 15 13.4833 15C16.2117 15 15.4917 16.6667 17.31 16.6667C19.1283 16.6667 21.8567 15 24.5833 15C27.31 15 29.1667 16.6667 29.1667 16.6667" stroke="#297D2D" stroke-width="2" stroke-linecap="round"/>
<path d="M16.6803 26.6667H16.666" stroke="#FF8A80" stroke-width="2" stroke-linecap="round" stroke-linejoin="round"/>
</svg>
