<svg width="42" height="42" viewBox="0 0 42 42" fill="none" xmlns="http://www.w3.org/2000/svg">
<path d="M33.501 17.8422H36.2809C39.9849 17.8422 41.0849 18.4001 40.9949 21.1769C40.8489 25.7726 38.8789 31.1137 31.001 32.5789" stroke="#297D2D" stroke-width="2" stroke-linecap="round"/>
<path d="M8.89271 39.1367C2.14475 33.6736 1.15075 25.9263 1.00275 17.8421C0.940752 14.3495 1.90275 13.6316 6.31872 13.6316H27.6826C32.0986 13.6316 33.0626 14.3495 32.9986 17.8421C32.8506 25.9263 31.8586 33.6736 25.1086 39.1367C23.1886 40.6904 21.5686 40.9999 18.8387 40.9999H15.1627C12.4347 40.9999 10.8147 40.6925 8.89271 39.1367Z" stroke="#297D2D" stroke-width="2" stroke-linecap="round"/>
<path d="M17.0009 13.6315V24.1578M19.6189 1C18.5249 1.71368 17.0009 4.15788 17.0009 7.31576M12.081 4.15788C12.081 4.15788 11.001 5.21051 11.001 7.31576M25.0029 4.15788C24.4569 4.51577 24.0009 6.26313 24.0009 7.31576M14.009 30.0462L14.593 26.1472C14.765 25.0062 15.789 24.1578 16.9989 24.1578C18.2069 24.1578 19.2329 25.0062 19.4029 26.1472L19.9869 30.0462C20.3029 32.1451 13.733 31.8904 14.009 30.0462Z" stroke="#FF5252" stroke-width="2" stroke-linecap="round" stroke-linejoin="round"/>
</svg>
